<?xml version="1.0" encoding="UTF-8" standalone="no"?>
<!-- Created with Inkscape (http://www.inkscape.org/) -->

<svg
   width="196mm"
   height="87mm"
   viewBox="0 0 196 87"
   version="1.1"
   id="svg18168"
   xml:space="preserve"
   sodipodi:docname="logo.svg"
   inkscape:version="1.2.2 (732a01da63, 2022-12-09)"
   xmlns:inkscape="http://www.inkscape.org/namespaces/inkscape"
   xmlns:sodipodi="http://sodipodi.sourceforge.net/DTD/sodipodi-0.dtd"
   xmlns="http://www.w3.org/2000/svg"
   xmlns:svg="http://www.w3.org/2000/svg"><sodipodi:namedview
     id="namedview18170"
     pagecolor="#ffffff"
     bordercolor="#000000"
     borderopacity="0.25"
     inkscape:showpageshadow="2"
     inkscape:pageopacity="0.0"
     inkscape:pagecheckerboard="0"
     inkscape:deskcolor="#d1d1d1"
     inkscape:document-units="mm"
     showgrid="false"
     inkscape:zoom="0.72515432"
     inkscape:cx="113.07938"
     inkscape:cy="341.30666"
     inkscape:window-width="1920"
     inkscape:window-height="1001"
     inkscape:window-x="-9"
     inkscape:window-y="-9"
     inkscape:window-maximized="1"
     inkscape:current-layer="layer1" /><defs
     id="defs18165" /><g
     inkscape:label="Capa 1"
     inkscape:groupmode="layer"
     id="layer1"><g
       style="fill:#ffffff"
       id="g18677"
       transform="matrix(0.24915381,0,0,0.24915381,0.64307498,2.7677563)"><g
         id="g18667"
         style="fill:#ffffff">
	<g
   id="g18665"
   style="fill:#ffffff">
		<path
   d="m 103.418,324.088 c 18.17,2.589 39.607,-15.109 47.266,-64.918 7.656,-49.808 60.051,-48.575 60.051,-48.575 l -3.31,-15.524 -19.278,3.977 c -37.401,9.544 -29.373,-26.792 -29.199,-27.563 l 92.85,-94.312 c 10.221,-8.135 16.166,-3.627 16.166,-3.627 5.095,-23.437 46.639,-59.489 46.639,-59.489 0,0 3.465,0.583 0.643,-9.051 C 312.429,-4.628 305.06,8.501 299.82,8.713 294.574,8.925 293.988,0 293.988,0 l -58.657,45.511 c 2.931,6.31 2.408,10.281 1.134,12.688 l -3.097,3.144 c -0.16,0.08 -0.264,0.127 -0.264,0.127 l 0.072,0.069 -86.094,87.448 C 104.212,129.393 130.83,119.011 130.83,119.011 L 173.601,103.29 159.532,91.774 c 0,0 -72.755,18.416 -65.434,32.959 7.325,14.54 19.563,28.298 -6.669,42.074 -26.229,13.774 -101.45,4.536 -73.206,75.726 28.249,71.184 71.023,78.961 89.195,81.555 z"
   id="path18663"
   style="fill:#ffffff" />
	</g>
</g></g><text
       xml:space="preserve"
       style="font-style:normal;font-variant:normal;font-weight:normal;font-stretch:normal;font-size:35.7702px;font-family:'MV Boli';-inkscape-font-specification:'MV Boli, Normal';font-variant-ligatures:normal;font-variant-caps:normal;font-variant-numeric:normal;font-variant-east-asian:normal;fill:#ff6600;stroke-width:0.367848"
       x="83.966583"
       y="39.519798"
       id="text18733"><tspan
         sodipodi:role="line"
         id="tspan18731"
         style="font-style:normal;font-variant:normal;font-weight:normal;font-stretch:normal;font-size:35.7702px;font-family:'MV Boli';-inkscape-font-specification:'MV Boli, Normal';font-variant-ligatures:normal;font-variant-caps:normal;font-variant-numeric:normal;font-variant-east-asian:normal;stroke-width:0.367847"
         x="83.966583"
         y="39.519798">Guitar</tspan></text><text
       xml:space="preserve"
       style="font-style:normal;font-variant:normal;font-weight:normal;font-stretch:normal;font-size:48.6717px;font-family:'Bauhaus 93';-inkscape-font-specification:'Bauhaus 93, Normal';font-variant-ligatures:normal;font-variant-caps:normal;font-variant-numeric:normal;font-variant-east-asian:normal;fill:#ffffff;stroke-width:0.500522"
       x="62.161995"
       y="82.34964"
       id="text18787"><tspan
         sodipodi:role="line"
         id="tspan18785"
         style="font-style:normal;font-variant:normal;font-weight:normal;font-stretch:normal;font-size:48.6717px;font-family:'Bauhaus 93';-inkscape-font-specification:'Bauhaus 93, Normal';font-variant-ligatures:normal;font-variant-caps:normal;font-variant-numeric:normal;font-variant-east-asian:normal;fill:#ffffff;stroke-width:0.500521"
         x="62.161995"
         y="82.34964">Studio</tspan></text></g></svg>
